<svg xmlns="http://www.w3.org/2000/svg" width="1200" height="900" viewBox="0 0 1200 900" fill="none">
  <defs>
    <linearGradient id="g" x1="0" y1="0" x2="1" y2="1">
      <stop offset="0" stop-color="#FAFAFA"/>
      <stop offset="1" stop-color="#F4F4F5"/>
    </linearGradient>
    <linearGradient id="g2" x1="0" y1="0" x2="0" y2="1">
      <stop offset="0" stop-color="#18181B" stop-opacity="0.10"/>
      <stop offset="1" stop-color="#18181B" stop-opacity="0.02"/>
    </linearGradient>
  </defs>

  <rect x="0" y="0" width="1200" height="900" rx="48" fill="url(#g)"/>

  <!-- soft background grid -->
  <g opacity="0.30" stroke="#18181B" stroke-opacity="0.15">
    <path d="M120 160H1080"/>
    <path d="M120 260H1080"/>
    <path d="M120 360H1080"/>
    <path d="M120 460H1080"/>
    <path d="M120 560H1080"/>
    <path d="M120 660H1080"/>
    <path d="M240 120V780"/>
    <path d="M420 120V780"/>
    <path d="M600 120V780"/>
    <path d="M780 120V780"/>
    <path d="M960 120V780"/>
  </g>

  <!-- boxes -->
  <g>
    <rect x="210" y="520" width="220" height="180" rx="22" fill="#FFFFFF" stroke="#E4E4E7" stroke-width="6"/>
    <path d="M210 585h220" stroke="#E4E4E7" stroke-width="6"/>
    <path d="M320 520v180" stroke="#E4E4E7" stroke-width="6"/>

    <rect x="380" y="420" width="260" height="210" rx="26" fill="#FFFFFF" stroke="#E4E4E7" stroke-width="6"/>
    <path d="M380 495h260" stroke="#E4E4E7" stroke-width="6"/>
    <path d="M510 420v210" stroke="#E4E4E7" stroke-width="6"/>

    <rect x="620" y="500" width="250" height="200" rx="24" fill="#FFFFFF" stroke="#E4E4E7" stroke-width="6"/>
    <path d="M620 575h250" stroke="#E4E4E7" stroke-width="6"/>
    <path d="M745 500v200" stroke="#E4E4E7" stroke-width="6"/>
  </g>

  <!-- arrow (movement) -->
  <g>
    <path d="M260 330c120-130 360-150 520-70 90 45 150 120 170 210" stroke="#18181B" stroke-opacity="0.25" stroke-width="18" stroke-linecap="round"/>
    <path d="M980 470l-70-18 34 64" fill="#18181B" fill-opacity="0.18"/>
  </g>

  <!-- subtle depth -->
  <rect x="120" y="120" width="960" height="660" rx="40" fill="url(#g2)"/>
</svg>
